<svg xmlns="http://www.w3.org/2000/svg" width="16" height="16" viewBox="0 0 16 16">
  <defs>
    <style>
      .cls-2 {
        fill: none;
      }

      .cls-3 {
        fill: #fff;
      }
    </style>
  </defs>
  <g id="组_211" data-name="组 211" class="cls-1" transform="translate(-65 -242)">
    <g id="组_20" data-name="组 20">
      <rect id="矩形_29" data-name="矩形 29" class="cls-2" width="16" height="16" transform="translate(65 242)"/>
    </g>
    <g id="组_21" data-name="组 21">
      <path id="路径_20" data-name="路径 20" class="cls-3" d="M75.75,243.75a.5.5,0,0,0,0,1h1.793L74.9,247.4a.5.5,0,0,0,.708.708l2.646-2.647v1.793a.5.5,0,0,0,1,0v-3.5Z"/>
      <path id="路径_21" data-name="路径 21" class="cls-3" d="M78.75,252.25a.5.5,0,0,0-.5.5v1.793L75.6,251.9a.5.5,0,0,0-.708.708l2.647,2.646H75.75a.5.5,0,0,0,0,1h3.5v-3.5A.5.5,0,0,0,78.75,252.25Z"/>
      <path id="路径_22" data-name="路径 22" class="cls-3" d="M68.457,244.75H70.25a.5.5,0,0,0,0-1h-3.5v3.5a.5.5,0,0,0,1,0v-1.793L70.4,248.1a.5.5,0,1,0,.708-.708Z"/>
      <path id="路径_23" data-name="路径 23" class="cls-3" d="M70.4,251.9l-2.646,2.647V252.75a.5.5,0,0,0-1,0v3.5h3.5a.5.5,0,0,0,0-1H68.457L71.1,252.6a.5.5,0,1,0-.708-.708Z"/>
    </g>
  </g>
</svg>
