<svg xmlns="http://www.w3.org/2000/svg" width="16" height="16" viewBox="0 0 16 16">
  <defs>
    <style>
      .cls-2 {
        fill: none;
      }

      .cls-3 {
        fill: #fff;
      }
    </style>
  </defs>
  <g id="组_213" data-name="组 213" class="cls-1" transform="translate(-21 -238)">
    <g id="组_126" data-name="组 126">
      <rect id="矩形_188" data-name="矩形 188" class="cls-2" width="16" height="16" transform="translate(21 238)"/>
    </g>
    <g id="组_127" data-name="组 127">
      <path id="路径_93" data-name="路径 93" class="cls-3" d="M33.5,243H26v-1.5a2.5,2.5,0,0,1,2.5-2.5h1a2.5,2.5,0,0,1,2.5,2.5.5.5,0,0,0,1,0,3.5,3.5,0,0,0-3.5-3.5h-1a3.5,3.5,0,0,0-3.5,3.5V243h-.5a2.5,2.5,0,0,0-2.5,2.5v6a2.5,2.5,0,0,0,2.5,2.5h9a2.5,2.5,0,0,0,2.5-2.5v-6A2.5,2.5,0,0,0,33.5,243Zm1.5,8.5a1.5,1.5,0,0,1-1.5,1.5h-9a1.5,1.5,0,0,1-1.5-1.5v-6a1.5,1.5,0,0,1,1.5-1.5h9a1.5,1.5,0,0,1,1.5,1.5Z"/>
      <path id="路径_94" data-name="路径 94" class="cls-3" d="M29,246a.5.5,0,0,0-.5.5v4a.5.5,0,0,0,1,0v-4A.5.5,0,0,0,29,246Z"/>
    </g>
  </g>
</svg>
