<svg xmlns="http://www.w3.org/2000/svg" width="49" height="30" viewBox="0 0 49 30">
  <defs>
    <style>
      .cls-2 {
        fill: #fff;
      }
    </style>
  </defs>
  <g id="组_209" data-name="组 209" class="cls-1" transform="translate(-56.503 -332.503)">
    <path id="路径_141" data-name="路径 141" class="cls-2" d="M114.3,355.182l0,0q-1.153-.44-2.347-.795a32.906,32.906,0,0,0-9.382-1.357h-.1a32.979,32.979,0,0,0-7.609.907.237.237,0,0,0,.044.468,34.427,34.427,0,0,1,6.917,1.038h0a2.492,2.492,0,0,1,1.005.523,5.326,5.326,0,0,1,1.74,4.012,7.661,7.661,0,0,1-2.339,5.56,20.413,20.413,0,0,0,4.89-2.933l.037-.031.115-.1.061-.051.082-.07.085-.072.023-.02.123-.108a15.323,15.323,0,0,0,2.773-3.212q.293.169.582.343l.005,0a.85.85,0,0,0,.989-.081,31.121,31.121,0,0,0,2.649-2.533A.926.926,0,0,0,114.3,355.182Z" transform="translate(-9.387 -5.047)"/>
    <path id="路径_142" data-name="路径 142" class="cls-2" d="M104.884,345.59C103.616,338.209,95.1,332.5,84.79,332.5c-9.657,0-17.735,5-19.765,11.7a.4.4,0,0,0,.466.5,87.817,87.817,0,0,1,9.215-1.557.991.991,0,0,0,.765-.522,10.522,10.522,0,0,1,18.874.477,7.531,7.531,0,0,1,.392.961.677.677,0,0,0,.546.461,74.214,74.214,0,0,1,9.211,2.111.381.381,0,0,0,.481-.411Q104.938,345.9,104.884,345.59Z" transform="translate(-2.091 0)"/>
    <path id="路径_143" data-name="路径 143" class="cls-2" d="M101.962,351l-.1-.04-.1-.035c-.591-.222-1.242-.44-1.929-.652l-.312-.094-.339-.1c-1.85-.543-3.9-1.035-5.66-1.362l-.035-.007c-.408-.078-.995-.176-1.569-.267-1.622-.263-3.106-.466-4.861-.6-.143-.011-.287-.021-.43-.031-.308-.021-.63-.039-.958-.057q-.742-.04-1.49-.06c-.365-.011-.74-.02-1.135-.027-.115,0-.231,0-.346,0h-.348q-2.483.012-4.928.188t-4.847.511a72.765,72.765,0,0,0-7.628,1.481q-1.25.312-2.484.667c-.6.172-1.191.357-1.782.544-.888.28-1.772.572-2.646.885l-.538.19c-.015.005-.026.014-.041.02l-.13.047a1.263,1.263,0,0,0-.524,2l.112.131h0l.014.016c.12.141.245.277.367.415.4.458.817.908,1.244,1.343l.009.008c.351.357.713.7,1.079,1.044.034.032.066.066.1.1.053.049.109.094.162.143q.422.383.855.753c.1.082.192.165.29.246.373.311.751.617,1.137.912l.009.007.011.006a1.341,1.341,0,0,0,.183.118c.013.007.026.011.038.017a1.389,1.389,0,0,0,.169.072c.009,0,.019,0,.028.008a1.415,1.415,0,0,0,.189.048h.015a1.574,1.574,0,0,0,.207.019h0a1.417,1.417,0,0,0,.218-.014l.017,0a1.447,1.447,0,0,0,.2-.045c.014,0,.029-.012.043-.017a1.338,1.338,0,0,0,.164-.066c.032-.016.061-.037.092-.055s.067-.036.1-.059l.008-.005h0l.037-.026.171-.121c.216-.153.434-.3.652-.453l.279-.186.016.021h0q.158.208.326.414c.257.314.532.62.82.918l0,0c.3.312.62.612.949.907l.036.034h0a18.311,18.311,0,0,0,1.872,1.458,24.347,24.347,0,0,0,13.064,3.926l.164,0,.127,0,.318,0,.317,0,.128,0,.164,0a13.724,13.724,0,0,0,3.922-.7c3.206-.973,6.192-3.238,6.807-6.542.011-.063.028-.131.039-.195.366-2.058-.222-3.568-.888-4.138a2.5,2.5,0,0,0-.44-.3,10.521,10.521,0,0,1-18.39,3.3c-.051-.066-.1-.137-.145-.2a10.4,10.4,0,0,1-.694-1.066c-.094-.167-.183-.337-.268-.51l-.013-.027a1.6,1.6,0,0,1,.869-2.129l.489-.195c.1-.039.206-.08.311-.12.572-.218,1.144-.432,1.725-.628l.042-.015h0c.187-.063.379-.118.567-.179.41-.133.82-.267,1.234-.388.173-.051.348-.093.522-.142.433-.121.866-.244,1.3-.354.241-.06.485-.109.727-.166.375-.087.747-.179,1.124-.257.239-.05.482-.089.722-.135.384-.073.766-.151,1.153-.215.167-.028.338-.047.506-.073.463-.072.926-.143,1.393-.2h.019a47.272,47.272,0,0,1,5.8-.356c.478,0,.955,0,1.43.021,1.577.073,2.912.179,4.088.311q.334.04.658.082c.29.039.578.079.86.123l.373.058c.346.056.685.113,1.015.174l.182.033q.524.1,1.017.2l.181.038c.3.064.593.13.878.2l.259.06c.317.076.628.152.922.229.07.018.143.035.212.051A11.445,11.445,0,0,0,101.962,351Z" transform="translate(0 -3.728)"/>
  </g>
</svg>
