<svg xmlns="http://www.w3.org/2000/svg" width="24" height="24" viewBox="0 0 24 24">
  <defs>
    <style>
      .cls-1 {
        opacity: 0.65;
      }

      .cls-2 {
        fill: none;
      }

      .cls-3 {
        fill: #fff;
      }
    </style>
  </defs>
  <g id="组_522" data-name="组 522" class="cls-1" transform="translate(-1081 -776.584)">
    <g id="组_487" data-name="组 487">
      <rect id="矩形_270" data-name="矩形 270" class="cls-2" width="24" height="24" transform="translate(1081 776.584)"/>
    </g>
    <g id="组_488" data-name="组 488">
      <path id="路径_173" data-name="路径 173" class="cls-3" d="M1086,782.584h-2a2,2,0,0,0-2,2v12a2,2,0,0,0,2,2h2a2,2,0,0,0,2-2v-12A2,2,0,0,0,1086,782.584Zm-2,14v-12h2v12Z"/>
      <path id="路径_174" data-name="路径 174" class="cls-3" d="M1094,778.584h-2a2,2,0,0,0-2,2v16a2,2,0,0,0,2,2h2a2,2,0,0,0,2-2v-16A2,2,0,0,0,1094,778.584Zm-2,18v-16h2v16Z"/>
      <path id="路径_175" data-name="路径 175" class="cls-3" d="M1102,788.584h-2a2,2,0,0,0-2,2v6a2,2,0,0,0,2,2h2a2,2,0,0,0,2-2v-6A2,2,0,0,0,1102,788.584Zm-2,8v-6h2v6Z"/>
    </g>
  </g>
</svg>
