<svg xmlns="http://www.w3.org/2000/svg" width="16" height="16" viewBox="0 0 16 16">
  <defs>
    <style>
      .cls-2 {
        fill: none;
      }

      .cls-3 {
        fill: #fff;
      }
    </style>
  </defs>
  <g id="组_212" data-name="组 212" class="cls-1" transform="translate(-43 -239)">
    <g id="组_123" data-name="组 123">
      <rect id="矩形_187" data-name="矩形 187" class="cls-2" width="16" height="16" transform="translate(43 239)"/>
    </g>
    <g id="组_124" data-name="组 124">
      <path id="路径_91" data-name="路径 91" class="cls-3" d="M51,247a.5.5,0,0,0,.5-.5v-7a.5.5,0,0,0-1,0v7A.5.5,0,0,0,51,247Z"/>
      <path id="路径_92" data-name="路径 92" class="cls-3" d="M53.692,241.537a.5.5,0,0,0-.384.922,6,6,0,1,1-4.616,0,.5.5,0,0,0-.384-.922,7,7,0,1,0,5.384,0Z"/>
    </g>
  </g>
</svg>
